<svg width="18" height="20" viewBox="0 0 18 20" fill="none" xmlns="http://www.w3.org/2000/svg">
<path d="M9.9 8.40005L12.6 8.40005L9 12.9L5.4 8.40005L8.1 8.40005L8.1 0.300048L9.9 0.300048L9.9 8.40005ZM6.3 1.61225L6.3 3.52385C4.75283 4.15209 3.47202 5.29838 2.67665 6.76665C1.88129 8.23492 1.62079 9.93392 1.93973 11.573C2.25866 13.2122 3.13721 14.6895 4.42509 15.7524C5.71297 16.8154 7.33015 17.3978 9 17.4C10.6716 17.401 12.2914 16.8202 13.5817 15.7575C14.8719 14.6947 15.7522 13.2161 16.0715 11.5752C16.3907 9.93439 16.1291 8.23359 15.3315 6.76455C14.5339 5.29551 13.25 4.14977 11.7 3.52385L11.7 1.61225C15.3513 2.75885 18 6.16985 18 10.2C18 15.1707 13.9707 19.2 9 19.2C4.0293 19.2 -6.50019e-07 15.1707 -4.32743e-07 10.2C-2.56577e-07 6.16985 2.6487 2.75885 6.3 1.61225Z" fill="#000000"/>
</svg>
